<?xml version="1.0" encoding="UTF-8" standalone="no"?>
<!-- Created with Inkscape (http://www.inkscape.org/) -->

<svg
   xmlns:dc="http://purl.org/dc/elements/1.1/"
   xmlns:cc="http://creativecommons.org/ns#"
   xmlns:rdf="http://www.w3.org/1999/02/22-rdf-syntax-ns#"
   xmlns:svg="http://www.w3.org/2000/svg"
   xmlns="http://www.w3.org/2000/svg"
   xmlns:sodipodi="http://sodipodi.sourceforge.net/DTD/sodipodi-0.dtd"
   xmlns:inkscape="http://www.inkscape.org/namespaces/inkscape"
   width="77.204712mm"
   height="77.205063mm"
   viewBox="0 0 77.204713 77.205063"
   version="1.1"
   id="svg82"
   sodipodi:docname="gitmate_circle_white_on_transparent_background.svg"
   inkscape:version="0.92.1 r">
  <defs
     id="defs76">
    <clipPath
       clipPathUnits="userSpaceOnUse"
       id="clipPath32">
      <path
         d="M 0,2000 H 2000 V 0 H 0 Z"
         id="path30"
         inkscape:connector-curvature="0" />
    </clipPath>
  </defs>
  <sodipodi:namedview
     id="base"
     pagecolor="#ffffff"
     bordercolor="#666666"
     borderopacity="1.0"
     inkscape:pageopacity="0.0"
     inkscape:pageshadow="2"
     inkscape:zoom="0.7"
     inkscape:cx="-167.51453"
     inkscape:cy="149.30526"
     inkscape:document-units="mm"
     inkscape:current-layer="layer1"
     showgrid="false"
     fit-margin-top="0"
     fit-margin-left="0"
     fit-margin-right="0"
     fit-margin-bottom="0"
     inkscape:window-width="1366"
     inkscape:window-height="703"
     inkscape:window-x="0"
     inkscape:window-y="0"
     inkscape:window-maximized="1" />
  <metadata
     id="metadata79">
    <rdf:RDF>
      <cc:Work
         rdf:about="">
        <dc:format>image/svg+xml</dc:format>
        <dc:type
           rdf:resource="http://purl.org/dc/dcmitype/StillImage" />
        <dc:title></dc:title>
      </cc:Work>
    </rdf:RDF>
  </metadata>
  <g
     inkscape:label="Ebene 1"
     inkscape:groupmode="layer"
     id="layer1"
     transform="translate(-69.568191,-77.589866)">
    <g
       transform="matrix(0.35277777,0,0,-0.35277777,-244.60726,490.33707)"
       id="g26">
      <g
         id="g28"
         clip-path="url(#clipPath32)">
        <g
           id="g34"
           transform="translate(827.3955,883.9824)">
          <path
             d="m 0,0 h 26.202 l 0.174,-11.815 c 0,-8.604 -1.62,-14.148 -4.86,-16.633 -3.242,-2.485 -10.472,-3.728 -21.69,-3.728 -10.29,0 -17.106,1.657 -20.448,4.971 -3.343,3.313 -5.014,10.071 -5.014,20.272 0,13.022 0.669,21.247 2.006,24.677 1.656,4.186 4.17,7.004 7.542,8.458 3.372,1.453 9.097,2.18 17.178,2.18 10.579,0 17.41,-1.127 20.491,-3.379 3.08,-2.253 4.621,-7.244 4.621,-14.976 H 14.78 c -0.204,3.895 -1.054,6.315 -2.551,7.259 -1.497,0.944 -5.253,1.417 -11.27,1.417 -6.54,0 -10.689,-0.813 -12.447,-2.441 -1.759,-1.628 -2.638,-5.449 -2.638,-11.466 l -0.043,-5.974 0.086,-7.629 c 0,-5.901 0.873,-9.657 2.617,-11.27 1.743,-1.613 5.783,-2.42 12.12,-2.42 6.161,0 10.078,0.683 11.749,2.05 1.672,1.365 2.507,4.592 2.507,9.678 l 0.044,2.442 H 0 Z"
             style="fill:#173542;fill-opacity:1;fill-rule:nonzero;stroke:none"
             id="path36"
             inkscape:connector-curvature="0" />
        </g>
        <path
           d="m 871.386,852.33 h -9.984 v 41.68 h 9.984 z m 0,51.184 h -9.984 v 8.328 h 9.984 z"
           style="fill:#173542;fill-opacity:1;fill-rule:nonzero;stroke:none"
           id="path38"
           inkscape:connector-curvature="0" />
        <g
           id="g40"
           transform="translate(908.0952,894.0098)">
          <path
             d="m 0,0 v -7.586 h -16.044 v -20.927 c 0,-3.866 1.467,-5.799 4.403,-5.799 3.226,0 4.84,2.339 4.84,7.02 v 1.656 H 1.7 v -2.093 c 0,-1.917 -0.058,-3.56 -0.174,-4.926 -0.553,-6.366 -5.291,-9.548 -14.213,-9.548 -8.894,0 -13.341,4.083 -13.341,12.251 v 22.366 h -5.406 V 0 h 5.406 v 9.33 h 9.984 V 0 Z"
             style="fill:#173542;fill-opacity:1;fill-rule:nonzero;stroke:none"
             id="path42"
             inkscape:connector-curvature="0" />
        </g>
        <g
           id="g44"
           transform="translate(985.1763,911.8418)">
          <path
             d="m 0,0 v -59.512 h -11.292 v 32.437 c 0,2.587 0.072,5.522 0.218,8.807 l 0.218,4.447 0.218,4.403 h -0.348 l -1.352,-4.142 -1.308,-4.141 c -1.221,-3.721 -2.166,-6.468 -2.834,-8.24 l -13.079,-33.571 h -10.289 l -13.211,33.309 c -0.727,1.831 -1.686,4.578 -2.877,8.24 l -1.352,4.142 -1.351,4.098 h -0.349 l 0.218,-4.316 0.218,-4.359 c 0.175,-3.373 0.261,-6.265 0.261,-8.677 V -59.512 H -69.582 V 0 h 18.398 l 10.638,-27.555 c 0.726,-1.918 1.685,-4.665 2.878,-8.239 l 1.308,-4.143 1.351,-4.097 h 0.392 l 1.265,4.097 1.308,4.099 c 1.075,3.458 2.005,6.191 2.79,8.196 L -18.791,0 Z"
             style="fill:#173542;fill-opacity:1;fill-rule:nonzero;stroke:none"
             id="path46"
             inkscape:connector-curvature="0" />
        </g>
        <g
           id="g48"
           transform="translate(1012.3809,870.9902)">
          <path
             d="m 0,0 c -5.639,0 -8.457,-1.948 -8.457,-5.843 0,-2.703 0.58,-4.475 1.744,-5.318 1.162,-0.844 3.604,-1.265 7.324,-1.265 6.075,0 9.112,2.049 9.112,6.148 C 9.723,-2.093 6.48,0 0,0 m -6.67,10.943 h -10.202 c 0,4.998 1.163,8.341 3.488,10.028 2.325,1.684 6.931,2.528 13.82,2.528 7.5,0 12.57,-1.032 15.216,-3.096 2.645,-2.063 3.967,-6.002 3.967,-11.814 V -18.66 H 9.635 l 0.48,5.711 -0.261,0.044 c -1.918,-4.157 -6.352,-6.235 -13.297,-6.235 -10.087,0 -15.129,4.287 -15.129,12.862 0,8.661 5.159,12.992 15.476,12.992 6.889,0 11.075,-1.585 12.557,-4.752 H 9.635 V 8.72 c 0,3.255 -0.567,5.413 -1.699,6.473 -1.135,1.061 -3.459,1.592 -6.977,1.592 -5.086,0 -7.629,-1.947 -7.629,-5.842"
             style="fill:#173542;fill-opacity:1;fill-rule:nonzero;stroke:none"
             id="path50"
             inkscape:connector-curvature="0" />
        </g>
        <g
           id="g52"
           transform="translate(1068.8398,894.0098)">
          <path
             d="m 0,0 v -7.586 h -16.043 v -20.927 c 0,-3.866 1.467,-5.799 4.402,-5.799 3.227,0 4.84,2.339 4.84,7.02 v 1.656 h 8.502 v -2.093 c 0,-1.917 -0.058,-3.56 -0.174,-4.926 -0.552,-6.366 -5.291,-9.548 -14.213,-9.548 -8.894,0 -13.341,4.083 -13.341,12.251 v 22.366 h -5.407 V 0 h 5.407 v 9.33 h 9.984 V 0 Z"
             style="fill:#173542;fill-opacity:1;fill-rule:nonzero;stroke:none"
             id="path54"
             inkscape:connector-curvature="0" />
        </g>
        <g
           id="g56"
           transform="translate(1102.9785,877.4863)">
          <path
             d="m 0,0 -0.045,1.656 c 0,3.314 -0.574,5.464 -1.721,6.453 -1.148,0.988 -3.64,1.483 -7.478,1.483 -3.721,0 -6.139,-0.597 -7.258,-1.788 C -17.621,6.611 -18.182,4.011 -18.182,0 Z M -0.088,-11.815 H 9.939 v -1.614 c 0,-8.138 -6.103,-12.207 -18.31,-12.207 -8.283,0 -13.705,1.409 -16.262,4.229 -2.558,2.819 -3.838,8.792 -3.838,17.919 0,8.109 1.338,13.559 4.012,16.349 2.674,2.79 7.891,4.186 15.652,4.186 7.44,0 12.424,-1.359 14.953,-4.077 2.53,-2.718 3.793,-8.059 3.793,-16.022 v -3.052 h -28.207 c -0.058,-0.93 -0.087,-1.541 -0.087,-1.831 0,-4.098 0.632,-6.831 1.896,-8.197 1.264,-1.366 3.785,-2.049 7.564,-2.049 3.663,0 6.045,0.4 7.151,1.2 1.103,0.798 1.656,2.521 1.656,5.166"
             style="fill:#173542;fill-opacity:1;fill-rule:nonzero;stroke:none"
             id="path58"
             inkscape:connector-curvature="0" />
        </g>
        <path
           d="m 1130.793,852.33 h -9.984 v 10.726 h 9.984 z"
           style="fill:#173542;fill-opacity:1;fill-rule:nonzero;stroke:none"
           id="path60"
           inkscape:connector-curvature="0" />
        <path
           d="m 1150.15,852.33 h -9.982 v 41.68 h 9.982 z m 0,51.184 h -9.982 v 8.328 h 9.982 z"
           style="fill:#173542;fill-opacity:1;fill-rule:nonzero;stroke:none"
           id="path62"
           inkscape:connector-curvature="0" />
        <g
           id="g64"
           transform="translate(1178.1855,886.5977)">
          <path
             d="m 0,0 c -4.156,0 -6.801,-0.748 -7.936,-2.245 -1.132,-1.497 -1.699,-4.992 -1.699,-10.485 0,-6.278 0.537,-10.202 1.614,-11.772 1.074,-1.569 3.763,-2.353 8.064,-2.353 4.156,0 6.779,0.828 7.869,2.484 1.09,1.657 1.635,5.639 1.635,11.946 0,5.319 -0.567,8.72 -1.699,10.202 C 6.713,-0.741 4.098,0 0,0 m 0.086,7.892 c 8.051,0 13.326,-1.287 15.826,-3.859 2.5,-2.572 3.75,-8 3.75,-16.284 0,-9.242 -1.221,-15.303 -3.662,-18.18 -2.441,-2.878 -7.586,-4.316 -15.434,-4.316 -8.515,0 -14.031,1.337 -16.545,4.011 -2.515,2.674 -3.771,8.559 -3.771,17.657 0,8.748 1.234,14.431 3.705,17.047 2.471,2.616 7.848,3.924 16.131,3.924"
             style="fill:#173542;fill-opacity:1;fill-rule:nonzero;stroke:none"
             id="path66"
             inkscape:connector-curvature="0" />
        </g>
        <g
           id="g68"
           transform="translate(1034.5273,1067.186)">
          <path
             d="m 0,0 c -3.666,0 -6.641,2.974 -6.641,6.64 0,3.664 2.975,6.64 6.641,6.64 3.664,0 6.641,-2.976 6.641,-6.64 C 6.641,2.974 3.664,0 0,0 m -18.561,19.278 c -1.535,0 -2.955,-0.824 -3.718,-2.161 -0.762,-1.337 -0.744,-2.979 0.041,-4.303 l 9.726,-16.395 c 1.703,-2.873 4.791,-4.631 8.125,-4.631 h 28.291 v 2.178 c 0,9.257 -2.554,17.919 -7.004,25.312 z"
             style="fill:#173542;fill-opacity:1;fill-rule:nonzero;stroke:none"
             id="path70"
             inkscape:connector-curvature="0" />
        </g>
        <g
           id="g72"
           transform="translate(972.0986,1064.4238)">
          <path
             d="m 0,0 c -6.151,0 -11.137,-4.986 -11.137,-11.137 0,-6.152 4.986,-11.138 11.137,-11.138 6.15,0 11.138,4.986 11.138,11.138 C 11.138,-4.986 6.15,0 0,0"
             style="fill:#173542;fill-opacity:1;fill-rule:nonzero;stroke:none"
             id="path74"
             inkscape:connector-curvature="0" />
        </g>
        <g
           id="g76"
           transform="translate(1072.8301,993.7051)">
          <path
             d="m 0,0 h -14.398 v 28.133 h -12.483 c 0,2.049 1.66,3.706 3.707,3.706 h 8.776 v 2.474 h -12.483 c 0,2.044 1.66,3.705 3.707,3.705 h 8.776 v 2.471 h -12.483 c 0,2.047 1.66,3.708 3.707,3.708 h 8.776 v 17.122 h -30.54 c -3.333,0 -6.423,1.764 -8.123,4.632 l -12.316,20.753 c -1.211,2.047 -1.234,4.588 -0.057,6.656 1.178,2.069 3.373,3.347 5.756,3.347 h 35.639 c -8.965,12.102 -23.352,19.946 -39.566,19.946 h -18.45 c -0.318,0 -0.635,-0.005 -0.955,-0.013 v 14.563 c 3.152,1.611 5.312,4.892 5.312,8.675 0,5.379 -4.361,9.74 -9.739,9.74 -5.379,0 -9.738,-4.361 -9.738,-9.74 0,-4.129 2.572,-7.657 6.197,-9.073 v -14.962 c -22.917,-4.197 -40.281,-24.266 -40.281,-48.396 V 0 h -14.4 c -16.344,17.676 -26.325,41.313 -26.325,67.284 0,54.76 44.393,99.154 99.155,99.154 54.761,0 99.153,-44.394 99.153,-99.154 C 26.324,41.313 16.344,17.676 0,0 m -100.731,43.666 c -8.775,0 -15.915,7.141 -15.915,15.916 0,8.774 7.14,15.913 15.915,15.913 8.775,0 15.914,-7.139 15.914,-15.913 0,-8.775 -7.139,-15.916 -15.914,-15.916 m 27.906,132.621 c -60.44,0 -109.429,-48.989 -109.429,-109.43 0,-60.429 48.989,-109.419 109.429,-109.419 60.43,0 109.419,48.99 109.419,109.419 0,60.441 -48.989,109.43 -109.419,109.43"
             style="fill:#173542;fill-opacity:1;fill-rule:nonzero;stroke:none"
             id="path78"
             inkscape:connector-curvature="0" />
        </g>
      </g>
    </g>
    <path
       style="fill:#ffffff;stroke:none;stroke-width:1.01015258"
       d="m 161.41178,227.38011 c -13.21515,-16.372 -23.20191,-38.49232 -27.02144,-59.85154 -1.74156,-9.73893 -1.74465,-34.68154 -0.006,-44.44671 7.09789,-39.85446 32.92311,-75.24172 68.8508,-94.343476 10.45978,-5.561175 26.7316,-11.10358 38.72901,-13.191637 11.56791,-2.013306 33.11923,-2.013306 44.68715,0 40.67912,7.079888 76.22741,33.482908 95.37257,70.836721 4.74159,9.251229 10.29821,25.938832 12.21982,36.698392 1.92102,10.75634 1.68901,35.7963 -0.43096,46.51057 -4.20029,21.22823 -13.63149,41.7106 -26.60858,57.78768 l -5.50378,6.81853 h -9.55291 -9.55291 V 215.51082 196.823 h -8.08122 c -4.51759,0 -8.08122,-0.42978 -8.08122,-0.97462 0,-1.86159 3.94206,-3.06599 10.03511,-3.06599 5.45389,0 6.12733,-0.22204 6.12733,-2.02031 0,-1.85194 -0.67344,-2.0203 -8.08122,-2.0203 -4.44468,0 -8.08122,-0.36366 -8.08122,-0.80813 0,-2.20295 2.95992,-3.23248 9.2934,-3.23248 6.1956,0 6.86904,-0.19807 6.86904,-2.02031 0,-1.85194 -0.67344,-2.0203 -8.08122,-2.0203 -4.44468,0 -8.08122,-0.36366 -8.08122,-0.80813 0,-2.20622 2.96069,-3.23248 9.32546,-3.23248 h 6.90109 l -0.28459,-11.8693 -0.2846,-11.86929 -22.90208,-0.50507 c -22.46625,-0.49547 -22.95122,-0.5513 -25.48457,-2.93355 -1.42038,-1.33565 -6.45613,-9.00654 -11.19057,-17.04639 -9.43142,-16.01612 -10.35451,-19.44346 -6.27013,-23.28054 2.27267,-2.13506 3.04835,-2.19639 27.7792,-2.19639 18.24236,0 25.44124,-0.32307 25.44124,-1.14176 0,-2.68548 -13.8971,-14.669608 -21.71828,-18.728683 -12.0335,-6.245212 -17.59851,-7.428644 -38.13326,-8.109247 l -17.9302,-0.594277 v -9.343527 c 0,-7.223523 0.33181,-9.470854 1.4624,-9.904706 2.31401,-0.887966 4.8369,-6.709928 4.77735,-11.024491 -0.13736,-9.952623 -11.50776,-16.121722 -20.08031,-10.894729 -7.54578,4.600933 -8.49149,14.954776 -1.91634,20.980457 l 3.63507,3.331288 v 9.391885 9.391887 l -5.19328,1.330995 c -7.87686,2.018779 -19.88875,8.509799 -26.33261,14.229681 -7.72633,6.858277 -15.24575,18.348017 -18.68197,28.546207 l -2.79593,8.29791 -0.31888,50.76017 -0.31888,50.76016 h -9.50118 -9.50118 z M 342.2885,140.00192 c -0.60936,-8.37154 -3.2878,-18.18631 -6.88989,-25.24699 l -1.93602,-3.7949 h -24.9012 c -27.31452,0 -28.59582,0.27063 -28.59582,6.03989 0,3.86911 14.47961,27.87506 17.94877,29.75755 2.18018,1.18303 7.19039,1.50581 23.87006,1.53776 l 21.1107,0.0404 -0.6066,-8.33375 z"
       id="path161"
       inkscape:connector-curvature="0"
       transform="matrix(0.26458333,0,0,0.26458333,38.235668,77.589866)" />
    <path
       style="fill:#ffffff;stroke:none;stroke-width:0.71428573"
       d="m 162.34255,228.7707 c -21.62796,-26.85492 -31.70082,-58.52015 -29.445,-92.56386 3.10326,-46.833 31.47018,-88.849022 73.88572,-109.436775 19.80944,-9.61515 40.16276,-13.819202 62.79996,-12.971554 32.16978,1.204594 61.8959,13.694792 85.3505,35.862217 32.91118,31.105038 47.55487,77.486832 38.5639,122.145682 -4.04448,20.08923 -14.43937,41.66579 -27.93133,57.97674 l -4.33234,5.23755 h -9.17778 -9.17776 l -0.19044,-18.75 -0.19042,-18.75 -8.46047,-0.35715 -8.46046,-0.35714 1.54802,-1.96428 c 1.49076,-1.89163 1.79426,-1.96429 8.20547,-1.96429 5.42672,0 6.73803,-0.20999 7.09334,-1.13589 0.23972,-0.62474 0.25515,-1.42831 0.0343,-1.78571 -0.22091,-0.35741 -4.0791,-0.64983 -8.57377,-0.64983 -4.49467,0 -8.17213,-0.28582 -8.17213,-0.63516 0,-0.34932 0.5625,-1.3269 1.25,-2.17238 1.06632,-1.31134 2.29959,-1.61161 8.39286,-2.04342 6.49793,-0.46048 7.14286,-0.63517 7.14286,-1.93475 0,-1.32807 -0.59524,-1.4537 -8.46047,-1.78572 l -8.46046,-0.35714 1.54802,-1.96429 c 1.49178,-1.89291 1.79115,-1.96428 8.23973,-1.96428 3.68045,0 6.88478,-0.31237 7.12073,-0.69416 0.23596,-0.38178 0.20635,-5.68536 -0.0658,-11.78571 l -0.49482,-11.09156 h -21.45225 c -20.06659,0 -21.63983,-0.0929 -24.35633,-1.43895 -3.54879,-1.7584 -3.22955,-1.3161 -13.87397,-19.22214 -9.19075,-15.46067 -9.80911,-17.21282 -7.58945,-21.50515 2.15169,-4.16091 2.8644,-4.26233 29.95243,-4.26233 14.98157,0 24.67833,-0.26467 24.67833,-0.67357 0,-1.22254 -8.13016,-9.483953 -12.85714,-13.06471 -6.00326,-4.54755 -15.99061,-9.442841 -23.21429,-11.378454 -4.91844,-1.317915 -8.22617,-1.575561 -23.75,-1.849939 l -18.03571,-0.318773 v -9.555098 c 0,-9.352847 0.0371,-9.579375 1.75063,-10.702158 4.7472,-3.110479 6.06867,-12.511118 2.4924,-17.730335 -4.88587,-7.130457 -15.40563,-7.707962 -20.92488,-1.148713 -2.31168,2.747281 -3.578,7.283233 -2.97114,10.642626 0.61175,3.386443 3.35353,7.495543 6.0734,9.102213 l 2.18918,1.293177 -0.19766,9.583801 -0.19765,9.583801 -4.92296,1.347633 c -18.65667,5.107155 -33.80055,17.919462 -42.17067,35.677999 -6.01455,12.76082 -5.66796,8.87728 -5.93594,66.51193 l -0.2383,51.25 h -9.49824 -9.49824 z m 180.10388,-80.81014 c 0.70899,-1.14716 -0.97912,-15.18995 -2.50645,-20.85033 -0.825,-3.05746 -2.67632,-7.91231 -4.11406,-10.78856 l -2.61408,-5.22954 -17.14286,-0.22243 c -23.13765,-0.30022 -32.61937,0.27628 -34.57955,2.10248 -2.62655,2.447 -1.94456,5.27004 3.61078,14.94638 9.87586,17.20186 11.72746,19.25437 18.0696,20.03032 5.72842,0.70087 38.8446,0.71072 39.27662,0.0117 z"
       id="path163"
       inkscape:connector-curvature="0"
       transform="matrix(0.26458333,0,0,0.26458333,38.235668,77.589866)" />
    <path
       style="fill:#ffffff;stroke:none;stroke-width:0.71428573"
       d="m 304.56898,134.0207 c -2.07294,-2.07295 -2.42857,-2.92017 -2.42857,-5.78572 0,-2.86554 0.35563,-3.71276 2.42857,-5.78571 3.49897,-3.49897 8.07246,-3.49897 11.57143,0 2.07295,2.07295 2.42857,2.92017 2.42857,5.78571 0,2.86555 -0.35562,3.71277 -2.42857,5.78572 -2.07295,2.07295 -2.92017,2.42857 -5.78571,2.42857 -2.86555,0 -3.71277,-0.35562 -5.78572,-2.42857 z"
       id="path165"
       inkscape:connector-curvature="0"
       transform="matrix(0.26458333,0,0,0.26458333,38.235668,77.589866)" />
    <path
       style="fill:#ffffff;stroke:none;stroke-width:0.71428573"
       d="m 219.51819,174.95458 c -4.30023,-1.65349 -8.78011,-5.72932 -11.08256,-10.08298 -2.41553,-4.5675 -2.35274,-13.83663 0.12662,-18.69145 3.56625,-6.98306 10.53308,-11.15945 18.6156,-11.15945 8.34999,0 14.79988,4.0924 18.59284,11.79699 2.07893,4.2229 2.24394,5.0592 1.93419,9.80274 -0.40088,6.13924 -1.99171,9.6318 -6.34875,13.93826 -5.649,5.58342 -14.24791,7.31435 -21.83794,4.39589 z m 13.69978,-5.55173 c 11.26055,-5.11556 11.93868,-21.30037 1.13153,-27.00589 -4.29611,-2.26807 -10.12206,-2.26807 -14.41817,0 -8.43973,4.45566 -10.39255,15.84102 -3.97143,23.15427 4.32115,4.92153 11.417,6.50516 17.25807,3.85162 z"
       id="path167"
       inkscape:connector-curvature="0"
       transform="matrix(0.26458333,0,0,0.26458333,38.235668,77.589866)" />
  </g>
</svg>
