<?xml version="1.0" encoding="UTF-8" standalone="no"?>
<!-- Created with Inkscape (http://www.inkscape.org/) -->

<svg
   xmlns:dc="http://purl.org/dc/elements/1.1/"
   xmlns:cc="http://creativecommons.org/ns#"
   xmlns:rdf="http://www.w3.org/1999/02/22-rdf-syntax-ns#"
   xmlns:svg="http://www.w3.org/2000/svg"
   xmlns="http://www.w3.org/2000/svg"
   xmlns:sodipodi="http://sodipodi.sourceforge.net/DTD/sodipodi-0.dtd"
   xmlns:inkscape="http://www.inkscape.org/namespaces/inkscape"
   width="114mm"
   height="114mm"
   viewBox="0 0 114 114"
   version="1.1"
   id="svg82"
   sodipodi:docname="gitmate_domain_white_bg.svg"
   inkscape:version="0.92.2 5c3e80d, 2017-08-06">
  <defs
     id="defs76">
    <clipPath
       clipPathUnits="userSpaceOnUse"
       id="clipPath32">
      <path
         d="M 0,2000 H 2000 V 0 H 0 Z"
         id="path30"
         inkscape:connector-curvature="0" />
    </clipPath>
  </defs>
  <sodipodi:namedview
     id="base"
     pagecolor="#ffffff"
     bordercolor="#666666"
     borderopacity="1.0"
     inkscape:pageopacity="0.0"
     inkscape:pageshadow="2"
     inkscape:zoom="0.98994949"
     inkscape:cx="368.34203"
     inkscape:cy="188.59386"
     inkscape:document-units="mm"
     inkscape:current-layer="g28"
     showgrid="false"
     fit-margin-top="0"
     fit-margin-left="0"
     fit-margin-right="0"
     fit-margin-bottom="0"
     inkscape:window-width="1920"
     inkscape:window-height="1021"
     inkscape:window-x="0"
     inkscape:window-y="22"
     inkscape:window-maximized="1" />
  <metadata
     id="metadata79">
    <rdf:RDF>
      <cc:Work
         rdf:about="">
        <dc:format>image/svg+xml</dc:format>
        <dc:type
           rdf:resource="http://purl.org/dc/dcmitype/StillImage" />
        <dc:title></dc:title>
      </cc:Work>
    </rdf:RDF>
  </metadata>
  <g
     inkscape:label="Ebene 1"
     inkscape:groupmode="layer"
     id="layer1"
     transform="translate(-50.784264,-62.052039)">
    <g
       id="g880"
       transform="translate(0.25790071,-7.768914)">
      <g
         id="g26"
         transform="matrix(0.35277777,0,0,-0.35277777,-244.60726,490.33707)">
        <g
           clip-path="url(#clipPath32)"
           id="g28">
          <g
             transform="translate(1032.7013,1067.186)"
             id="g68">
            <path
               inkscape:connector-curvature="0"
               id="path70"
               style="fill:#173542;fill-opacity:1;fill-rule:nonzero;stroke:none"
               d="m 0,0 c -3.666,0 -6.641,2.974 -6.641,6.64 0,3.664 2.975,6.64 6.641,6.64 3.664,0 6.641,-2.976 6.641,-6.64 C 6.641,2.974 3.664,0 0,0 m -18.561,19.278 c -1.535,0 -2.955,-0.824 -3.718,-2.161 -0.762,-1.337 -0.744,-2.979 0.041,-4.303 l 9.726,-16.395 c 1.703,-2.873 4.791,-4.631 8.125,-4.631 h 28.291 v 2.178 c 0,9.257 -2.554,17.919 -7.004,25.312 z" />
          </g>
          <g
             transform="translate(970.27257,1064.4238)"
             id="g72">
            <path
               inkscape:connector-curvature="0"
               id="path74"
               style="fill:#173542;fill-opacity:1;fill-rule:nonzero;stroke:none"
               d="m 0,0 c -6.151,0 -11.137,-4.986 -11.137,-11.137 0,-6.152 4.986,-11.138 11.137,-11.138 6.15,0 11.138,4.986 11.138,11.138 C 11.138,-4.986 6.15,0 0,0" />
          </g>
          <g
             transform="translate(1071.0041,993.7051)"
             id="g76">
            <path
               inkscape:connector-curvature="0"
               id="path78"
               style="fill:#173542;fill-opacity:1;fill-rule:nonzero;stroke:none"
               d="m 0,0 h -14.398 v 28.133 h -12.483 c 0,2.049 1.66,3.706 3.707,3.706 h 8.776 v 2.474 h -12.483 c 0,2.044 1.66,3.705 3.707,3.705 h 8.776 v 2.471 h -12.483 c 0,2.047 1.66,3.708 3.707,3.708 h 8.776 v 17.122 h -30.54 c -3.333,0 -6.423,1.764 -8.123,4.632 l -12.316,20.753 c -1.211,2.047 -1.234,4.588 -0.057,6.656 1.178,2.069 3.373,3.347 5.756,3.347 h 35.639 c -8.965,12.102 -23.352,19.946 -39.566,19.946 h -18.45 c -0.318,0 -0.635,-0.005 -0.955,-0.013 v 14.563 c 3.152,1.611 5.312,4.892 5.312,8.675 0,5.379 -4.361,9.74 -9.739,9.74 -5.379,0 -9.738,-4.361 -9.738,-9.74 0,-4.129 2.572,-7.657 6.197,-9.073 v -14.962 c -22.917,-4.197 -40.281,-24.266 -40.281,-48.396 V 0 h -14.4 c -16.344,17.676 -26.325,41.313 -26.325,67.284 0,54.76 44.393,99.154 99.155,99.154 54.761,0 99.153,-44.394 99.153,-99.154 C 26.324,41.313 16.344,17.676 0,0 m -100.731,43.666 c -8.775,0 -15.915,7.141 -15.915,15.916 0,8.774 7.14,15.913 15.915,15.913 8.775,0 15.914,-7.139 15.914,-15.913 0,-8.775 -7.139,-15.916 -15.914,-15.916 m 27.906,132.621 c -60.44,0 -109.429,-48.989 -109.429,-109.43 0,-60.429 48.989,-109.419 109.429,-109.419 60.43,0 109.419,48.99 109.419,109.419 0,60.441 -48.989,109.43 -109.419,109.43" />
          </g>
          <text
             transform="scale(1,-1)"
             id="text864"
             y="-891.79297"
             x="833.73657"
             style="font-style:normal;font-weight:normal;font-size:30px;line-height:1.25;font-family:sans-serif;letter-spacing:0px;word-spacing:0px;fill:#000000;fill-opacity:1;stroke:none;stroke-width:0.75"
             xml:space="preserve"><tspan
               style="font-size:64px;fill:#173542;fill-opacity:1;stroke-width:0.75"
               y="-891.79297"
               x="833.73657"
               id="tspan862"
               sodipodi:role="line">GitMate.io</tspan></text>
        </g>
      </g>
      <path
         inkscape:connector-curvature="0"
         id="path161"
         d="m 80.298352,137.75085 c -3.496508,-4.33176 -6.138838,-10.18442 -7.149422,-15.83572 -0.460788,-2.57676 -0.461606,-9.17615 -0.0016,-11.75986 1.877984,-10.544821 8.710906,-19.9077 18.216774,-24.961707 2.767484,-1.471394 7.072736,-2.937822 10.247056,-3.490287 3.06067,-0.532687 8.76279,-0.532687 11.82347,0 10.76302,1.87322 20.1685,8.859019 25.23399,18.742214 1.25455,2.44772 2.72474,6.86298 3.23316,9.70978 0.50827,2.84595 0.44689,9.47111 -0.11402,12.30593 -1.11133,5.61663 -3.60667,11.03593 -7.04019,15.28965 l -1.45621,1.80407 h -2.52754 -2.52754 v -4.94448 -4.94449 h -2.13815 c -1.19528,0 -2.13816,-0.11371 -2.13816,-0.25787 0,-0.49254 1.043,-0.81121 2.65512,-0.81121 1.44301,0 1.62119,-0.0588 1.62119,-0.53454 0,-0.48999 -0.17818,-0.53454 -2.13815,-0.53454 -1.17599,0 -2.13816,-0.0962 -2.13816,-0.21381 0,-0.58287 0.78315,-0.85526 2.45888,-0.85526 1.63925,0 1.81743,-0.0524 1.81743,-0.53454 0,-0.49 -0.17818,-0.53454 -2.13815,-0.53454 -1.17599,0 -2.13816,-0.0962 -2.13816,-0.21382 0,-0.58373 0.78335,-0.85526 2.46736,-0.85526 h 1.82592 l -0.0753,-3.14042 -0.0753,-3.14041 -6.05951,-0.13364 c -5.9442,-0.13109 -6.07251,-0.14586 -6.74279,-0.77617 -0.37581,-0.35339 -1.70819,-2.38298 -2.96084,-4.51019 -2.4954,-4.2376 -2.73963,-5.14441 -1.65897,-6.15964 0.60131,-0.5649 0.80654,-0.58113 7.34991,-0.58113 4.82662,0 6.73133,-0.0855 6.73133,-0.30209 0,-0.71053 -3.67694,-3.88133 -5.7463,-4.9553 -3.18386,-1.652375 -4.65627,-1.965491 -10.08942,-2.145567 l -4.74403,-0.157236 v -2.472142 c 0,-1.911223 0.0878,-2.50583 0.38692,-2.62062 0.61225,-0.234941 1.27977,-1.775335 1.26401,-2.916896 -0.0363,-2.633298 -3.04476,-4.265539 -5.31292,-2.882564 -1.996486,1.21733 -2.246705,3.956784 -0.50703,5.551079 l 0.96178,0.881403 v 2.484937 2.484936 l -1.374056,0.35216 c -2.084086,0.534135 -5.262232,2.25155 -6.96717,3.76494 -2.044258,1.81458 -4.033771,4.85458 -4.942937,7.55285 l -0.739757,2.19549 -0.08437,13.43029 -0.08437,13.43029 h -2.513853 -2.513854 z m 47.856968,-23.11881 c -0.16123,-2.21497 -0.8699,-4.81179 -1.82295,-6.67993 l -0.51224,-1.00407 h -6.58844 c -7.22697,0 -7.56598,0.0716 -7.56598,1.59805 0,1.02371 3.83106,7.37528 4.74894,7.87336 0.57684,0.31301 1.90246,0.39841 6.31562,0.40686 l 5.58554,0.0107 z"
         style="fill:#ffffff;stroke:none;stroke-width:0.26726952" />
      <path
         inkscape:connector-curvature="0"
         id="path163"
         d="m 80.544618,138.11878 c -5.722397,-7.10536 -8.387508,-15.48346 -7.790656,-24.49085 0.821071,-12.39124 8.326485,-23.507975 19.54893,-28.955151 5.241248,-2.544008 10.626398,-3.656331 16.615818,-3.432057 8.51159,0.318715 16.37663,3.623414 22.58232,9.488545 8.70775,8.229874 12.58223,20.501723 10.20337,32.317713 -1.0701,5.31527 -3.82042,11.02407 -7.39016,15.33968 l -1.14627,1.38577 h -2.42829 -2.42828 l -0.0504,-4.96094 -0.0504,-4.96094 -2.2385,-0.0945 -2.2385,-0.0945 0.40959,-0.51971 c 0.39443,-0.5005 0.47473,-0.51972 2.17103,-0.51972 1.43582,0 1.78277,-0.0556 1.87678,-0.30054 0.0634,-0.1653 0.0675,-0.37791 0.009,-0.47247 -0.0584,-0.0946 -1.07926,-0.17193 -2.26848,-0.17193 -1.18921,0 -2.16221,-0.0756 -2.16221,-0.16806 0,-0.0924 0.14883,-0.35107 0.33073,-0.57477 0.28213,-0.34696 0.60844,-0.42641 2.22061,-0.54066 1.71925,-0.12183 1.88989,-0.16805 1.88989,-0.5119 0,-0.35138 -0.15749,-0.38462 -2.2385,-0.47247 l -2.2385,-0.0945 0.40958,-0.51972 c 0.3947,-0.50084 0.47391,-0.51972 2.1801,-0.51972 0.97378,0 1.82159,-0.0827 1.88402,-0.18366 0.0624,-0.10101 0.0546,-1.50425 -0.0174,-3.1183 l -0.13092,-2.93465 h -5.67591 c -5.30928,0 -5.72553,-0.0246 -6.44428,-0.38072 -0.93895,-0.46524 -0.85448,-0.34822 -3.67082,-5.08586 -2.43172,-4.09063 -2.59532,-4.55422 -2.00804,-5.6899 0.5693,-1.10091 0.75787,-1.12774 7.92492,-1.12774 3.96387,0 6.52947,-0.07 6.52947,-0.17822 0,-0.32346 -2.1511,-2.50929 -3.40178,-3.4567 -1.58837,-1.20321 -4.23085,-2.49842 -6.14212,-3.010551 -1.30134,-0.348698 -2.17651,-0.416867 -6.28385,-0.489463 l -4.77195,-0.08434 v -2.528119 c 0,-2.474608 0.01,-2.534543 0.46319,-2.831613 1.25603,-0.822981 1.60567,-3.310233 0.65944,-4.691151 -1.29272,-1.8866 -4.07607,-2.039398 -5.536371,-0.30393 -0.611632,0.726884 -0.946679,1.927022 -0.786114,2.815861 0.161859,0.895996 0.887288,1.983196 1.606925,2.408294 l 0.57922,0.342153 -0.0523,2.535714 -0.0523,2.535714 -1.302529,0.356561 c -4.936244,1.35127 -8.943063,4.74119 -11.157657,9.4398 -1.591349,3.3763 -1.499647,2.34878 -1.570551,17.59795 l -0.06305,13.5599 H 84.389477 81.876401 Z M 128.1971,116.73776 c 0.18759,-0.30352 -0.25906,-4.019 -0.66316,-5.51665 -0.21828,-0.80895 -0.70811,-2.09346 -1.08851,-2.85447 l -0.69165,-1.38365 -4.53571,-0.0589 c -6.12184,-0.0794 -8.63054,0.0731 -9.14917,0.55628 -0.69494,0.64744 -0.5145,1.39437 0.95535,3.95456 2.61299,4.55133 3.10289,5.09439 4.78091,5.29969 1.51565,0.18544 10.27764,0.18805 10.39194,0.003 z"
         style="fill:#ffffff;stroke:none;stroke-width:0.1889881" />
      <path
         inkscape:connector-curvature="0"
         id="path165"
         d="m 118.17536,113.04951 c -0.54846,-0.54847 -0.64256,-0.77263 -0.64256,-1.53081 0,-0.75817 0.0941,-0.98233 0.64256,-1.5308 0.92577,-0.92577 2.13584,-0.92577 3.06161,0 0.54847,0.54847 0.64256,0.77263 0.64256,1.5308 0,0.75818 -0.0941,0.98234 -0.64256,1.53081 -0.54847,0.54847 -0.77263,0.64256 -1.5308,0.64256 -0.75818,0 -0.98234,-0.0941 -1.53081,-0.64256 z"
         style="fill:#ffffff;stroke:none;stroke-width:0.1889881" />
      <path
         inkscape:connector-curvature="0"
         id="path167"
         d="m 95.67234,123.87993 c -1.137769,-0.43748 -2.323071,-1.51588 -2.932261,-2.66779 -0.639109,-1.20848 -0.622496,-3.66094 0.0335,-4.94544 0.94357,-1.8476 2.786877,-2.95261 4.925377,-2.95261 2.209268,0 3.915804,1.08278 4.919354,3.12129 0.55005,1.11731 0.59371,1.33858 0.51176,2.59364 -0.10607,1.62434 -0.52698,2.54841 -1.67978,3.68783 -1.494629,1.47728 -3.769757,1.93526 -5.777952,1.16308 z m 3.624733,-1.46889 c 2.979357,-1.3535 3.158777,-5.63573 0.299384,-7.14531 -1.136679,-0.6001 -2.678128,-0.6001 -3.814807,0 -2.233012,1.17889 -2.749696,4.19127 -1.050774,6.12623 1.143304,1.30216 3.020747,1.72116 4.566197,1.01908 z"
         style="fill:#ffffff;stroke:none;stroke-width:0.1889881" />
    </g>
  </g>
</svg>
